<svg width="12" height="14" viewBox="0 0 12 14" fill="none" xmlns="http://www.w3.org/2000/svg">
<path d="M11.125 12.0625H0.875C0.80625 12.0625 0.75 12.1187 0.75 12.1875V13.125C0.75 13.1938 0.80625 13.25 0.875 13.25H11.125C11.1938 13.25 11.25 13.1938 11.25 13.125V12.1875C11.25 12.1187 11.1938 12.0625 11.125 12.0625ZM11.125 0.75L0.875 0.75C0.80625 0.75 0.75 0.80625 0.75 0.875L0.75 1.8125C0.75 1.88125 0.80625 1.9375 0.875 1.9375L11.125 1.9375C11.1938 1.9375 11.25 1.88125 11.25 1.8125V0.875C11.25 0.80625 11.1938 0.75 11.125 0.75ZM7.54375 4.90625C7.6375 4.90625 7.69063 4.79688 7.63281 4.72344L6.05781 2.72969C6.04739 2.7162 6.03401 2.70527 6.01871 2.69776C6.0034 2.69024 5.98658 2.68634 5.96953 2.68634C5.95248 2.68634 5.93566 2.69024 5.92036 2.69776C5.90505 2.70527 5.89167 2.7162 5.88125 2.72969L4.30625 4.72344C4.29313 4.74012 4.28497 4.76016 4.28271 4.78126C4.28046 4.80237 4.28419 4.82368 4.29348 4.84276C4.30278 4.86184 4.31726 4.87791 4.33527 4.88914C4.35328 4.90037 4.37409 4.9063 4.39531 4.90625H5.4375L5.4375 9.09375H4.45625C4.3625 9.09375 4.30938 9.20312 4.36719 9.27656L5.94219 11.2688C5.9875 11.3266 6.075 11.3266 6.11875 11.2688L7.69375 9.27656C7.75156 9.20312 7.7 9.09375 7.60469 9.09375H6.5625L6.5625 4.90625H7.54375Z" fill="black" fill-opacity="0.6"/>
</svg>
